<svg width="3913" height="2725" viewBox="0 0 3913 2725" fill="none" xmlns="http://www.w3.org/2000/svg">
<mask id="path-1-outside-1_115_85" maskUnits="userSpaceOnUse" x="0.500214" y="-0.144043" width="3912" height="2725" fill="black">
<rect fill="white" x="0.500214" y="-0.144043" width="3912" height="2725"/>
<path fill-rule="evenodd" clip-rule="evenodd" d="M1946.24 1399.88C1948.18 1383.42 1944.84 1363.29 1935.6 1343.46C1926.35 1323.64 1913.07 1308.14 1899.22 1299.05C1885.32 1289.92 1871.3 1287.49 1860.08 1292.72C1848.86 1297.96 1841.71 1310.26 1839.76 1326.77C1837.82 1343.23 1841.16 1363.36 1850.4 1383.19C1859.65 1403.01 1872.93 1418.51 1886.78 1427.6C1900.68 1436.73 1914.7 1439.16 1925.92 1433.93C1937.14 1428.69 1944.29 1416.39 1946.24 1399.88ZM1927.19 1436.64C1952.22 1424.97 1957.2 1382.69 1938.32 1342.19C1919.43 1301.7 1883.84 1278.33 1858.81 1290C1833.78 1301.67 1828.8 1343.96 1847.68 1384.46C1866.57 1424.95 1902.16 1448.31 1927.19 1436.64Z"/>
<path fill-rule="evenodd" clip-rule="evenodd" d="M1949.97 1421.81C1953.12 1395.1 1947.69 1362.55 1932.79 1330.58C1917.88 1298.6 1896.42 1273.53 1873.94 1258.77C1851.41 1243.98 1828.3 1239.79 1809.56 1248.53C1790.83 1257.26 1779.18 1277.66 1776.03 1304.42C1772.88 1331.13 1778.31 1363.69 1793.21 1395.66C1808.12 1427.63 1829.58 1452.71 1852.06 1467.47C1874.59 1482.26 1897.7 1486.45 1916.44 1477.71C1935.17 1468.98 1946.82 1448.58 1949.97 1421.81ZM1917.7 1480.43C1957.75 1461.76 1965.72 1394.1 1935.5 1329.31C1905.29 1264.52 1848.34 1227.13 1808.3 1245.81C1768.25 1264.48 1760.28 1332.14 1790.5 1396.93C1820.71 1461.72 1877.66 1499.1 1917.7 1480.43Z"/>
<path fill-rule="evenodd" clip-rule="evenodd" d="M1955.19 1459.04C1960.35 1415.24 1951.45 1361.99 1927.1 1309.77C1902.75 1257.55 1867.68 1216.51 1830.81 1192.3C1793.89 1168.07 1755.62 1160.96 1724.37 1175.53C1693.13 1190.1 1673.98 1223.99 1668.81 1267.84C1663.65 1311.65 1672.55 1364.9 1696.9 1417.12C1721.25 1469.33 1756.32 1510.38 1793.19 1534.58C1830.11 1558.81 1868.38 1565.93 1899.63 1551.36C1930.87 1536.79 1950.02 1502.9 1955.19 1459.04ZM1900.89 1554.08C1965.96 1523.73 1978.91 1413.79 1929.82 1308.5C1880.73 1203.22 1788.18 1142.47 1723.11 1172.81C1658.04 1203.15 1645.09 1313.1 1694.18 1418.38C1743.27 1523.67 1835.82 1584.42 1900.89 1554.08Z"/>
<path fill-rule="evenodd" clip-rule="evenodd" d="M1962.14 1517.21C1970.52 1446.06 1956.06 1359.69 1916.61 1275.08C1877.15 1190.47 1820.29 1123.88 1760.4 1084.56C1700.46 1045.22 1637.94 1033.43 1586.67 1057.34C1535.4 1081.24 1504.25 1136.71 1495.86 1207.92C1487.48 1279.07 1501.94 1365.43 1541.39 1450.04C1580.85 1534.66 1637.71 1601.25 1697.61 1640.56C1757.54 1679.9 1820.06 1691.69 1871.33 1667.79C1922.6 1643.88 1953.75 1588.41 1962.14 1517.21ZM1872.6 1670.51C1977.71 1621.49 1998.63 1443.89 1919.32 1273.81C1840.02 1103.74 1690.52 1005.6 1585.4 1054.62C1480.29 1103.63 1459.37 1281.24 1538.68 1451.31C1617.98 1621.39 1767.48 1719.52 1872.6 1670.51Z"/>
<path fill-rule="evenodd" clip-rule="evenodd" d="M1972.31 1613.6C1985.92 1498.01 1962.43 1357.84 1898.43 1220.58C1834.42 1083.33 1742.15 975.231 1644.85 911.361C1547.5 847.46 1445.58 828.069 1361.78 867.146C1277.98 906.223 1227.31 996.767 1213.69 1112.41C1200.08 1228 1223.57 1368.17 1287.57 1505.43C1351.58 1642.68 1443.85 1750.78 1541.15 1814.65C1638.5 1878.55 1740.42 1897.94 1824.22 1858.86C1908.02 1819.79 1958.69 1729.24 1972.31 1613.6ZM1825.49 1861.58C1995.67 1782.23 2029.55 1494.67 1901.14 1219.31C1772.74 943.958 1530.69 785.069 1360.51 864.427C1190.33 943.785 1156.45 1231.34 1284.86 1506.7C1413.26 1782.05 1655.31 1940.94 1825.49 1861.58Z"/>
<path fill-rule="evenodd" clip-rule="evenodd" d="M1987.43 1768.15C2009.5 1580.78 1971.41 1353.69 1867.75 1131.39C1764.09 909.102 1614.62 733.953 1456.89 630.417C1299.12 526.85 1133.54 495.178 997.18 558.762C860.822 622.347 778.652 769.547 756.574 956.98C734.502 1144.36 772.593 1371.45 876.25 1593.74C979.906 1816.03 1129.38 1991.18 1287.11 2094.72C1444.88 2198.28 1610.46 2229.96 1746.82 2166.37C1883.18 2102.79 1965.35 1955.59 1987.43 1768.15ZM1748.09 2169.09C2023.39 2040.72 2078.18 1575.56 1870.47 1130.13C1662.76 684.696 1271.21 427.67 995.912 556.044C720.615 684.417 665.823 1149.58 873.531 1595.01C1081.24 2040.44 1472.79 2297.46 1748.09 2169.09Z"/>
<path fill-rule="evenodd" clip-rule="evenodd" d="M2011.71 2019.1C2047.48 1715.5 1985.75 1347.68 1817.9 987.709C1650.04 627.738 1407.95 344.028 1152.39 176.269C896.777 8.4807 628.139 -43.0743 406.689 60.1894C185.239 163.453 52.0557 402.381 16.2871 706.041C-19.4752 1009.65 42.2476 1377.46 210.105 1737.43C377.962 2097.41 620.051 2381.12 875.614 2548.87C1131.22 2716.66 1399.86 2768.22 1621.31 2664.95C1842.76 2561.69 1975.94 2322.76 2011.71 2019.1ZM1622.58 2667.67C2068.06 2459.94 2156.72 1707.23 1820.61 986.442C1484.51 265.654 850.902 -150.261 405.421 57.4704C-40.0593 265.201 -128.723 1017.91 207.386 1738.7C543.495 2459.49 1177.1 2875.4 1622.58 2667.67Z"/>
<path fill-rule="evenodd" clip-rule="evenodd" d="M1966.76 1325.12C1964.82 1341.58 1968.16 1361.71 1977.4 1381.54C1986.65 1401.36 1999.93 1416.86 2013.78 1425.95C2027.68 1435.08 2041.7 1437.51 2052.92 1432.28C2064.14 1427.04 2071.29 1414.74 2073.24 1398.23C2075.18 1381.77 2071.84 1361.64 2062.6 1341.81C2053.35 1321.99 2040.07 1306.49 2026.22 1297.4C2012.32 1288.27 1998.3 1285.84 1987.08 1291.07C1975.85 1296.31 1968.71 1308.61 1966.76 1325.12ZM1985.81 1288.36C1960.78 1300.03 1955.8 1342.31 1974.68 1382.81C1993.57 1423.3 2029.16 1446.67 2054.19 1435C2079.22 1423.33 2084.2 1381.04 2065.32 1340.54C2046.43 1300.05 2010.84 1276.69 1985.81 1288.36Z"/>
<path fill-rule="evenodd" clip-rule="evenodd" d="M1963.03 1303.19C1959.88 1329.9 1965.31 1362.45 1980.21 1394.42C1995.12 1426.4 2016.58 1451.47 2039.06 1466.23C2061.59 1481.02 2084.7 1485.21 2103.44 1476.47C2122.17 1467.74 2133.82 1447.34 2136.97 1420.58C2140.12 1393.87 2134.69 1361.31 2119.79 1329.34C2104.88 1297.37 2083.42 1272.29 2060.94 1257.53C2038.41 1242.74 2015.29 1238.55 1996.56 1247.29C1977.83 1256.02 1966.18 1276.42 1963.03 1303.19ZM1995.3 1244.57C1955.25 1263.24 1947.28 1330.9 1977.5 1395.69C2007.71 1460.48 2064.66 1497.87 2104.7 1479.19C2144.75 1460.52 2152.72 1392.86 2122.5 1328.07C2092.29 1263.28 2035.34 1225.9 1995.3 1244.57Z"/>
<path fill-rule="evenodd" clip-rule="evenodd" d="M1957.81 1265.96C1952.65 1309.76 1961.55 1363.01 1985.9 1415.23C2010.25 1467.45 2045.32 1508.49 2082.19 1532.7C2119.11 1556.93 2157.38 1564.04 2188.63 1549.47C2219.87 1534.9 2239.02 1501.01 2244.19 1457.15C2249.35 1413.35 2240.45 1360.1 2216.1 1307.88C2191.75 1255.66 2156.68 1214.62 2119.81 1190.42C2082.89 1166.18 2044.62 1159.07 2013.37 1173.64C1982.13 1188.21 1962.98 1222.1 1957.81 1265.96ZM2012.11 1170.92C1947.04 1201.27 1934.09 1311.21 1983.18 1416.5C2032.27 1521.78 2124.82 1582.53 2189.89 1552.19C2254.96 1521.85 2267.91 1411.9 2218.82 1306.62C2169.73 1201.33 2077.18 1140.58 2012.11 1170.92Z"/>
<path fill-rule="evenodd" clip-rule="evenodd" d="M1950.86 1207.79C1942.48 1278.94 1956.94 1365.31 1996.39 1449.92C2035.85 1534.53 2092.71 1601.12 2152.6 1640.44C2212.54 1679.78 2275.06 1691.57 2326.33 1667.66C2377.6 1643.76 2408.75 1588.29 2417.14 1517.08C2425.52 1445.93 2411.06 1359.57 2371.61 1274.96C2332.15 1190.34 2275.29 1123.75 2215.39 1084.44C2155.46 1045.1 2092.94 1033.31 2041.67 1057.21C1990.4 1081.12 1959.25 1136.59 1950.86 1207.79ZM2040.4 1054.49C1935.29 1103.51 1914.37 1281.11 1993.68 1451.19C2072.98 1621.26 2222.48 1719.4 2327.6 1670.38C2432.71 1621.37 2453.63 1443.76 2374.32 1273.69C2295.02 1103.61 2145.52 1005.48 2040.4 1054.49Z"/>
<path fill-rule="evenodd" clip-rule="evenodd" d="M1940.69 1111.4C1927.08 1226.99 1950.57 1367.16 2014.57 1504.42C2078.58 1641.67 2170.85 1749.77 2268.15 1813.64C2365.5 1877.54 2467.42 1896.93 2551.22 1857.85C2635.02 1818.78 2685.69 1728.23 2699.31 1612.59C2712.92 1497 2689.43 1356.83 2625.43 1219.57C2561.42 1082.32 2469.15 974.22 2371.85 910.35C2274.5 846.45 2172.58 827.059 2088.78 866.136C2004.98 905.213 1954.31 995.757 1940.69 1111.4ZM2087.51 863.417C1917.33 942.775 1883.45 1230.33 2011.85 1505.69C2140.26 1781.04 2382.31 1939.93 2552.49 1860.57C2722.67 1781.21 2756.55 1493.66 2628.14 1218.3C2499.74 942.948 2257.69 784.059 2087.51 863.417Z"/>
<path fill-rule="evenodd" clip-rule="evenodd" d="M1925.57 956.846C1903.5 1144.22 1941.59 1371.31 2045.25 1593.61C2148.91 1815.9 2298.38 1991.05 2456.11 2094.58C2613.88 2198.15 2779.46 2229.82 2915.82 2166.24C3052.18 2102.65 3134.35 1955.45 3156.43 1768.02C3178.5 1580.64 3140.41 1353.55 3036.75 1131.26C2933.09 908.968 2783.62 733.819 2625.89 630.283C2468.12 526.716 2302.54 495.044 2166.18 558.629C2029.82 622.213 1947.65 769.413 1925.57 956.846ZM2164.91 555.91C1889.61 684.283 1834.82 1149.44 2042.53 1594.87C2250.24 2040.3 2641.79 2297.33 2917.09 2168.96C3192.38 2040.58 3247.18 1575.42 3039.47 1129.99C2831.76 684.562 2440.21 427.536 2164.91 555.91Z"/>
<path fill-rule="evenodd" clip-rule="evenodd" d="M1901.29 705.897C1865.52 1009.5 1927.25 1377.32 2095.1 1737.29C2262.96 2097.26 2505.05 2380.97 2760.61 2548.73C3016.22 2716.52 3284.86 2768.07 3506.31 2664.81C3727.76 2561.55 3860.94 2322.62 3896.71 2018.96C3932.47 1715.35 3870.75 1347.54 3702.89 987.566C3535.04 627.594 3292.95 343.884 3037.39 176.126C2781.78 8.33687 2513.14 -43.2182 2291.69 60.0455C2070.24 163.309 1937.06 402.237 1901.29 705.897ZM2290.42 57.3265C1844.94 265.058 1756.28 1017.77 2092.39 1738.56C2428.49 2459.35 3062.1 2875.26 3507.58 2667.53C3953.06 2459.8 4041.72 1707.09 3705.61 986.298C3369.51 265.51 2735.9 -150.404 2290.42 57.3265Z"/>
</mask>
<path fill-rule="evenodd" clip-rule="evenodd" d="M1946.24 1399.88C1948.18 1383.42 1944.84 1363.29 1935.6 1343.46C1926.35 1323.64 1913.07 1308.14 1899.22 1299.05C1885.32 1289.92 1871.3 1287.49 1860.08 1292.72C1848.86 1297.96 1841.71 1310.26 1839.76 1326.77C1837.82 1343.23 1841.16 1363.36 1850.4 1383.19C1859.65 1403.01 1872.93 1418.51 1886.78 1427.6C1900.68 1436.73 1914.7 1439.16 1925.92 1433.93C1937.14 1428.69 1944.29 1416.39 1946.24 1399.88ZM1927.19 1436.64C1952.22 1424.97 1957.2 1382.69 1938.32 1342.19C1919.43 1301.7 1883.84 1278.33 1858.81 1290C1833.78 1301.67 1828.8 1343.96 1847.68 1384.46C1866.57 1424.95 1902.16 1448.31 1927.19 1436.64Z" fill="white"/>
<path fill-rule="evenodd" clip-rule="evenodd" d="M1949.97 1421.81C1953.12 1395.1 1947.69 1362.55 1932.79 1330.58C1917.88 1298.6 1896.42 1273.53 1873.94 1258.77C1851.41 1243.98 1828.3 1239.79 1809.56 1248.53C1790.83 1257.26 1779.18 1277.66 1776.03 1304.42C1772.88 1331.13 1778.31 1363.69 1793.21 1395.66C1808.12 1427.63 1829.58 1452.71 1852.06 1467.47C1874.59 1482.26 1897.7 1486.45 1916.44 1477.71C1935.17 1468.98 1946.82 1448.58 1949.97 1421.81ZM1917.7 1480.43C1957.75 1461.76 1965.72 1394.1 1935.5 1329.31C1905.29 1264.52 1848.34 1227.13 1808.3 1245.81C1768.25 1264.48 1760.28 1332.14 1790.5 1396.93C1820.71 1461.72 1877.66 1499.1 1917.7 1480.43Z" fill="white"/>
<path fill-rule="evenodd" clip-rule="evenodd" d="M1955.19 1459.04C1960.35 1415.24 1951.45 1361.99 1927.1 1309.77C1902.75 1257.55 1867.68 1216.51 1830.81 1192.3C1793.89 1168.07 1755.62 1160.96 1724.37 1175.53C1693.13 1190.1 1673.98 1223.99 1668.81 1267.84C1663.65 1311.65 1672.55 1364.9 1696.9 1417.12C1721.25 1469.33 1756.32 1510.38 1793.19 1534.58C1830.11 1558.81 1868.38 1565.93 1899.63 1551.36C1930.87 1536.79 1950.02 1502.9 1955.19 1459.04ZM1900.89 1554.08C1965.96 1523.73 1978.91 1413.79 1929.82 1308.5C1880.73 1203.22 1788.18 1142.47 1723.11 1172.81C1658.04 1203.15 1645.09 1313.1 1694.18 1418.38C1743.27 1523.67 1835.82 1584.42 1900.89 1554.08Z" fill="white"/>
<path fill-rule="evenodd" clip-rule="evenodd" d="M1962.14 1517.21C1970.52 1446.06 1956.06 1359.69 1916.61 1275.08C1877.15 1190.47 1820.29 1123.88 1760.4 1084.56C1700.46 1045.22 1637.94 1033.43 1586.67 1057.34C1535.4 1081.24 1504.25 1136.71 1495.86 1207.92C1487.48 1279.07 1501.94 1365.43 1541.39 1450.04C1580.85 1534.66 1637.71 1601.25 1697.61 1640.56C1757.54 1679.9 1820.06 1691.69 1871.33 1667.79C1922.6 1643.88 1953.75 1588.41 1962.14 1517.21ZM1872.6 1670.51C1977.71 1621.49 1998.63 1443.89 1919.32 1273.81C1840.02 1103.74 1690.52 1005.6 1585.4 1054.62C1480.29 1103.63 1459.37 1281.24 1538.68 1451.31C1617.98 1621.39 1767.48 1719.52 1872.6 1670.51Z" fill="white"/>
<path fill-rule="evenodd" clip-rule="evenodd" d="M1972.31 1613.6C1985.92 1498.01 1962.43 1357.84 1898.43 1220.58C1834.42 1083.33 1742.15 975.231 1644.85 911.361C1547.5 847.46 1445.58 828.069 1361.78 867.146C1277.98 906.223 1227.31 996.767 1213.69 1112.41C1200.08 1228 1223.57 1368.17 1287.57 1505.43C1351.58 1642.68 1443.85 1750.78 1541.15 1814.65C1638.5 1878.55 1740.42 1897.94 1824.22 1858.86C1908.02 1819.79 1958.69 1729.24 1972.31 1613.6ZM1825.49 1861.58C1995.67 1782.23 2029.55 1494.67 1901.14 1219.31C1772.74 943.958 1530.69 785.069 1360.51 864.427C1190.33 943.785 1156.45 1231.34 1284.86 1506.7C1413.26 1782.05 1655.31 1940.94 1825.49 1861.58Z" fill="white"/>
<path fill-rule="evenodd" clip-rule="evenodd" d="M1987.43 1768.15C2009.5 1580.78 1971.41 1353.69 1867.75 1131.39C1764.09 909.102 1614.62 733.953 1456.89 630.417C1299.12 526.85 1133.54 495.178 997.18 558.762C860.822 622.347 778.652 769.547 756.574 956.98C734.502 1144.36 772.593 1371.45 876.25 1593.74C979.906 1816.03 1129.38 1991.18 1287.11 2094.72C1444.88 2198.28 1610.46 2229.96 1746.82 2166.37C1883.18 2102.79 1965.35 1955.59 1987.43 1768.15ZM1748.09 2169.09C2023.39 2040.72 2078.18 1575.56 1870.47 1130.13C1662.76 684.696 1271.21 427.67 995.912 556.044C720.615 684.417 665.823 1149.58 873.531 1595.01C1081.24 2040.44 1472.79 2297.46 1748.09 2169.09Z" fill="white"/>
<path fill-rule="evenodd" clip-rule="evenodd" d="M2011.71 2019.1C2047.48 1715.5 1985.75 1347.68 1817.9 987.709C1650.04 627.738 1407.95 344.028 1152.39 176.269C896.777 8.4807 628.139 -43.0743 406.689 60.1894C185.239 163.453 52.0557 402.381 16.2871 706.041C-19.4752 1009.65 42.2476 1377.46 210.105 1737.43C377.962 2097.41 620.051 2381.12 875.614 2548.87C1131.22 2716.66 1399.86 2768.22 1621.31 2664.95C1842.76 2561.69 1975.94 2322.76 2011.71 2019.1ZM1622.58 2667.67C2068.06 2459.94 2156.72 1707.23 1820.61 986.442C1484.51 265.654 850.902 -150.261 405.421 57.4704C-40.0593 265.201 -128.723 1017.91 207.386 1738.7C543.495 2459.49 1177.1 2875.4 1622.58 2667.67Z" fill="white"/>
<path fill-rule="evenodd" clip-rule="evenodd" d="M1966.76 1325.12C1964.82 1341.58 1968.16 1361.71 1977.4 1381.54C1986.65 1401.36 1999.93 1416.86 2013.78 1425.95C2027.68 1435.08 2041.7 1437.51 2052.92 1432.28C2064.14 1427.04 2071.29 1414.74 2073.24 1398.23C2075.18 1381.77 2071.84 1361.64 2062.6 1341.81C2053.35 1321.99 2040.07 1306.49 2026.22 1297.4C2012.32 1288.27 1998.3 1285.84 1987.08 1291.07C1975.85 1296.31 1968.71 1308.61 1966.76 1325.12ZM1985.81 1288.36C1960.78 1300.03 1955.8 1342.31 1974.68 1382.81C1993.57 1423.3 2029.16 1446.67 2054.19 1435C2079.22 1423.33 2084.2 1381.04 2065.32 1340.54C2046.43 1300.05 2010.84 1276.69 1985.81 1288.36Z" fill="white"/>
<path fill-rule="evenodd" clip-rule="evenodd" d="M1963.03 1303.19C1959.88 1329.9 1965.31 1362.45 1980.21 1394.42C1995.12 1426.4 2016.58 1451.47 2039.06 1466.23C2061.59 1481.02 2084.7 1485.21 2103.44 1476.47C2122.17 1467.74 2133.82 1447.34 2136.97 1420.58C2140.12 1393.87 2134.69 1361.31 2119.79 1329.34C2104.88 1297.37 2083.42 1272.29 2060.94 1257.53C2038.41 1242.74 2015.29 1238.55 1996.56 1247.29C1977.83 1256.02 1966.18 1276.42 1963.03 1303.19ZM1995.3 1244.57C1955.25 1263.24 1947.28 1330.9 1977.5 1395.69C2007.71 1460.48 2064.66 1497.87 2104.7 1479.19C2144.75 1460.52 2152.72 1392.86 2122.5 1328.07C2092.29 1263.28 2035.34 1225.9 1995.3 1244.57Z" fill="white"/>
<path fill-rule="evenodd" clip-rule="evenodd" d="M1957.81 1265.96C1952.65 1309.76 1961.55 1363.01 1985.9 1415.23C2010.25 1467.45 2045.32 1508.49 2082.19 1532.7C2119.11 1556.93 2157.38 1564.04 2188.63 1549.47C2219.87 1534.9 2239.02 1501.01 2244.19 1457.15C2249.35 1413.35 2240.45 1360.1 2216.1 1307.88C2191.75 1255.66 2156.68 1214.62 2119.81 1190.42C2082.89 1166.18 2044.62 1159.07 2013.37 1173.64C1982.13 1188.21 1962.98 1222.1 1957.81 1265.96ZM2012.11 1170.92C1947.04 1201.27 1934.09 1311.21 1983.18 1416.5C2032.27 1521.78 2124.82 1582.53 2189.89 1552.19C2254.96 1521.85 2267.91 1411.9 2218.82 1306.62C2169.73 1201.33 2077.18 1140.58 2012.11 1170.92Z" fill="white"/>
<path fill-rule="evenodd" clip-rule="evenodd" d="M1950.86 1207.79C1942.48 1278.94 1956.94 1365.31 1996.39 1449.92C2035.85 1534.53 2092.71 1601.12 2152.6 1640.44C2212.54 1679.78 2275.06 1691.57 2326.33 1667.66C2377.6 1643.76 2408.75 1588.29 2417.14 1517.08C2425.52 1445.93 2411.06 1359.57 2371.61 1274.96C2332.15 1190.34 2275.29 1123.75 2215.39 1084.44C2155.46 1045.1 2092.94 1033.31 2041.67 1057.21C1990.4 1081.12 1959.25 1136.59 1950.86 1207.79ZM2040.4 1054.49C1935.29 1103.51 1914.37 1281.11 1993.68 1451.19C2072.98 1621.26 2222.48 1719.4 2327.6 1670.38C2432.71 1621.37 2453.63 1443.76 2374.32 1273.69C2295.02 1103.61 2145.52 1005.48 2040.4 1054.49Z" fill="white"/>
<path fill-rule="evenodd" clip-rule="evenodd" d="M1940.69 1111.4C1927.08 1226.99 1950.57 1367.16 2014.57 1504.42C2078.58 1641.67 2170.85 1749.77 2268.15 1813.64C2365.5 1877.54 2467.42 1896.93 2551.22 1857.85C2635.02 1818.78 2685.69 1728.23 2699.31 1612.59C2712.92 1497 2689.43 1356.83 2625.43 1219.57C2561.42 1082.32 2469.15 974.22 2371.85 910.35C2274.5 846.45 2172.58 827.059 2088.78 866.136C2004.98 905.213 1954.31 995.757 1940.69 1111.4ZM2087.51 863.417C1917.33 942.775 1883.45 1230.33 2011.85 1505.69C2140.26 1781.04 2382.31 1939.93 2552.49 1860.57C2722.67 1781.21 2756.55 1493.66 2628.14 1218.3C2499.74 942.948 2257.69 784.059 2087.51 863.417Z" fill="white"/>
<path fill-rule="evenodd" clip-rule="evenodd" d="M1925.57 956.846C1903.5 1144.22 1941.59 1371.31 2045.25 1593.61C2148.91 1815.9 2298.38 1991.05 2456.11 2094.58C2613.88 2198.15 2779.46 2229.82 2915.82 2166.24C3052.18 2102.65 3134.35 1955.45 3156.43 1768.02C3178.5 1580.64 3140.41 1353.55 3036.75 1131.26C2933.09 908.968 2783.62 733.819 2625.89 630.283C2468.12 526.716 2302.54 495.044 2166.18 558.629C2029.82 622.213 1947.65 769.413 1925.57 956.846ZM2164.91 555.91C1889.61 684.283 1834.82 1149.44 2042.53 1594.87C2250.24 2040.3 2641.79 2297.33 2917.09 2168.96C3192.38 2040.58 3247.18 1575.42 3039.47 1129.99C2831.76 684.562 2440.21 427.536 2164.91 555.91Z" fill="white"/>
<path fill-rule="evenodd" clip-rule="evenodd" d="M1901.29 705.897C1865.52 1009.5 1927.25 1377.32 2095.1 1737.29C2262.96 2097.26 2505.05 2380.97 2760.61 2548.73C3016.22 2716.52 3284.86 2768.07 3506.31 2664.81C3727.76 2561.55 3860.94 2322.62 3896.71 2018.96C3932.47 1715.35 3870.75 1347.54 3702.89 987.566C3535.04 627.594 3292.95 343.884 3037.39 176.126C2781.78 8.33687 2513.14 -43.2182 2291.69 60.0455C2070.24 163.309 1937.06 402.237 1901.29 705.897ZM2290.42 57.3265C1844.94 265.058 1756.28 1017.77 2092.39 1738.56C2428.49 2459.35 3062.1 2875.26 3507.58 2667.53C3953.06 2459.8 4041.72 1707.09 3705.61 986.298C3369.51 265.51 2735.9 -150.404 2290.42 57.3265Z" fill="white"/>
<path fill-rule="evenodd" clip-rule="evenodd" d="M1946.24 1399.88C1948.18 1383.42 1944.84 1363.29 1935.6 1343.46C1926.35 1323.64 1913.07 1308.14 1899.22 1299.05C1885.32 1289.92 1871.3 1287.49 1860.08 1292.72C1848.86 1297.96 1841.71 1310.26 1839.76 1326.77C1837.82 1343.23 1841.16 1363.36 1850.4 1383.19C1859.65 1403.01 1872.93 1418.51 1886.78 1427.6C1900.68 1436.73 1914.7 1439.16 1925.92 1433.93C1937.14 1428.69 1944.29 1416.39 1946.24 1399.88ZM1927.19 1436.64C1952.22 1424.97 1957.2 1382.69 1938.32 1342.19C1919.43 1301.7 1883.84 1278.33 1858.81 1290C1833.78 1301.67 1828.8 1343.96 1847.68 1384.46C1866.57 1424.95 1902.16 1448.31 1927.19 1436.64Z" stroke="white" stroke-width="6" mask="url(#path-1-outside-1_115_85)"/>
<path fill-rule="evenodd" clip-rule="evenodd" d="M1949.97 1421.81C1953.12 1395.1 1947.69 1362.55 1932.79 1330.58C1917.88 1298.6 1896.42 1273.53 1873.94 1258.77C1851.41 1243.98 1828.3 1239.79 1809.56 1248.53C1790.83 1257.26 1779.18 1277.66 1776.03 1304.42C1772.88 1331.13 1778.31 1363.69 1793.21 1395.66C1808.12 1427.63 1829.58 1452.71 1852.06 1467.47C1874.59 1482.26 1897.7 1486.45 1916.44 1477.71C1935.17 1468.98 1946.82 1448.58 1949.97 1421.81ZM1917.7 1480.43C1957.75 1461.76 1965.72 1394.1 1935.5 1329.31C1905.29 1264.52 1848.34 1227.13 1808.3 1245.81C1768.25 1264.48 1760.28 1332.14 1790.5 1396.93C1820.71 1461.72 1877.66 1499.1 1917.7 1480.43Z" stroke="white" stroke-width="6" mask="url(#path-1-outside-1_115_85)"/>
<path fill-rule="evenodd" clip-rule="evenodd" d="M1955.19 1459.04C1960.35 1415.24 1951.45 1361.99 1927.1 1309.77C1902.75 1257.55 1867.68 1216.51 1830.81 1192.3C1793.89 1168.07 1755.62 1160.96 1724.37 1175.53C1693.13 1190.1 1673.98 1223.99 1668.81 1267.84C1663.65 1311.65 1672.55 1364.9 1696.9 1417.12C1721.25 1469.33 1756.32 1510.38 1793.19 1534.58C1830.11 1558.81 1868.38 1565.93 1899.63 1551.36C1930.87 1536.79 1950.02 1502.9 1955.19 1459.04ZM1900.89 1554.08C1965.96 1523.73 1978.91 1413.79 1929.82 1308.5C1880.73 1203.22 1788.18 1142.47 1723.11 1172.81C1658.04 1203.15 1645.09 1313.1 1694.18 1418.38C1743.27 1523.67 1835.82 1584.42 1900.89 1554.08Z" stroke="white" stroke-width="6" mask="url(#path-1-outside-1_115_85)"/>
<path fill-rule="evenodd" clip-rule="evenodd" d="M1962.14 1517.21C1970.52 1446.06 1956.06 1359.69 1916.61 1275.08C1877.15 1190.47 1820.29 1123.88 1760.4 1084.56C1700.46 1045.22 1637.94 1033.43 1586.67 1057.34C1535.4 1081.24 1504.25 1136.71 1495.86 1207.92C1487.48 1279.07 1501.94 1365.43 1541.39 1450.04C1580.85 1534.66 1637.71 1601.25 1697.61 1640.56C1757.54 1679.9 1820.06 1691.69 1871.33 1667.79C1922.6 1643.88 1953.75 1588.41 1962.14 1517.21ZM1872.6 1670.51C1977.71 1621.49 1998.63 1443.89 1919.32 1273.81C1840.02 1103.74 1690.52 1005.6 1585.4 1054.62C1480.29 1103.63 1459.37 1281.24 1538.68 1451.31C1617.98 1621.39 1767.48 1719.52 1872.6 1670.51Z" stroke="white" stroke-width="6" mask="url(#path-1-outside-1_115_85)"/>
<path fill-rule="evenodd" clip-rule="evenodd" d="M1972.31 1613.6C1985.92 1498.01 1962.43 1357.84 1898.43 1220.58C1834.42 1083.33 1742.15 975.231 1644.85 911.361C1547.5 847.46 1445.58 828.069 1361.78 867.146C1277.98 906.223 1227.31 996.767 1213.69 1112.41C1200.08 1228 1223.57 1368.17 1287.57 1505.43C1351.58 1642.68 1443.85 1750.78 1541.15 1814.65C1638.5 1878.55 1740.42 1897.94 1824.22 1858.86C1908.02 1819.79 1958.69 1729.24 1972.31 1613.6ZM1825.49 1861.58C1995.67 1782.23 2029.55 1494.67 1901.14 1219.31C1772.74 943.958 1530.69 785.069 1360.51 864.427C1190.33 943.785 1156.45 1231.34 1284.86 1506.7C1413.26 1782.05 1655.31 1940.94 1825.49 1861.58Z" stroke="white" stroke-width="6" mask="url(#path-1-outside-1_115_85)"/>
<path fill-rule="evenodd" clip-rule="evenodd" d="M1987.43 1768.15C2009.5 1580.78 1971.41 1353.69 1867.75 1131.39C1764.09 909.102 1614.62 733.953 1456.89 630.417C1299.12 526.85 1133.54 495.178 997.18 558.762C860.822 622.347 778.652 769.547 756.574 956.98C734.502 1144.36 772.593 1371.45 876.25 1593.74C979.906 1816.03 1129.38 1991.18 1287.11 2094.72C1444.88 2198.28 1610.46 2229.96 1746.82 2166.37C1883.18 2102.79 1965.35 1955.59 1987.43 1768.15ZM1748.09 2169.09C2023.39 2040.72 2078.18 1575.56 1870.47 1130.13C1662.76 684.696 1271.21 427.67 995.912 556.044C720.615 684.417 665.823 1149.58 873.531 1595.01C1081.24 2040.44 1472.79 2297.46 1748.09 2169.09Z" stroke="white" stroke-width="6" mask="url(#path-1-outside-1_115_85)"/>
<path fill-rule="evenodd" clip-rule="evenodd" d="M2011.71 2019.1C2047.48 1715.5 1985.75 1347.68 1817.9 987.709C1650.04 627.738 1407.95 344.028 1152.39 176.269C896.777 8.4807 628.139 -43.0743 406.689 60.1894C185.239 163.453 52.0557 402.381 16.2871 706.041C-19.4752 1009.65 42.2476 1377.46 210.105 1737.43C377.962 2097.41 620.051 2381.12 875.614 2548.87C1131.22 2716.66 1399.86 2768.22 1621.31 2664.95C1842.76 2561.69 1975.94 2322.76 2011.71 2019.1ZM1622.58 2667.67C2068.06 2459.94 2156.72 1707.23 1820.61 986.442C1484.51 265.654 850.902 -150.261 405.421 57.4704C-40.0593 265.201 -128.723 1017.91 207.386 1738.7C543.495 2459.49 1177.1 2875.4 1622.58 2667.67Z" stroke="white" stroke-width="6" mask="url(#path-1-outside-1_115_85)"/>
<path fill-rule="evenodd" clip-rule="evenodd" d="M1966.76 1325.12C1964.82 1341.58 1968.16 1361.71 1977.4 1381.54C1986.65 1401.36 1999.93 1416.86 2013.78 1425.95C2027.68 1435.08 2041.7 1437.51 2052.92 1432.28C2064.14 1427.04 2071.29 1414.74 2073.24 1398.23C2075.18 1381.77 2071.84 1361.64 2062.6 1341.81C2053.35 1321.99 2040.07 1306.49 2026.22 1297.4C2012.32 1288.27 1998.3 1285.84 1987.08 1291.07C1975.85 1296.31 1968.71 1308.61 1966.76 1325.12ZM1985.81 1288.36C1960.78 1300.03 1955.8 1342.31 1974.68 1382.81C1993.57 1423.3 2029.16 1446.67 2054.19 1435C2079.22 1423.33 2084.2 1381.04 2065.32 1340.54C2046.43 1300.05 2010.84 1276.69 1985.81 1288.36Z" stroke="white" stroke-width="6" mask="url(#path-1-outside-1_115_85)"/>
<path fill-rule="evenodd" clip-rule="evenodd" d="M1963.03 1303.19C1959.88 1329.9 1965.31 1362.45 1980.21 1394.42C1995.12 1426.4 2016.58 1451.47 2039.06 1466.23C2061.59 1481.02 2084.7 1485.21 2103.44 1476.47C2122.17 1467.74 2133.82 1447.34 2136.97 1420.58C2140.12 1393.87 2134.69 1361.31 2119.79 1329.34C2104.88 1297.37 2083.42 1272.29 2060.94 1257.53C2038.41 1242.74 2015.29 1238.55 1996.56 1247.29C1977.83 1256.02 1966.18 1276.42 1963.03 1303.19ZM1995.3 1244.57C1955.25 1263.24 1947.28 1330.9 1977.5 1395.69C2007.71 1460.48 2064.66 1497.87 2104.7 1479.19C2144.75 1460.52 2152.72 1392.86 2122.5 1328.07C2092.29 1263.28 2035.34 1225.9 1995.3 1244.57Z" stroke="white" stroke-width="6" mask="url(#path-1-outside-1_115_85)"/>
<path fill-rule="evenodd" clip-rule="evenodd" d="M1957.81 1265.96C1952.65 1309.76 1961.55 1363.01 1985.9 1415.23C2010.25 1467.45 2045.32 1508.49 2082.19 1532.7C2119.11 1556.93 2157.38 1564.04 2188.63 1549.47C2219.87 1534.9 2239.02 1501.01 2244.19 1457.15C2249.35 1413.35 2240.45 1360.1 2216.1 1307.88C2191.75 1255.66 2156.68 1214.62 2119.81 1190.42C2082.89 1166.18 2044.62 1159.07 2013.37 1173.64C1982.13 1188.21 1962.98 1222.1 1957.81 1265.96ZM2012.11 1170.92C1947.04 1201.27 1934.09 1311.21 1983.18 1416.5C2032.27 1521.78 2124.82 1582.53 2189.89 1552.19C2254.96 1521.85 2267.91 1411.9 2218.82 1306.62C2169.73 1201.33 2077.18 1140.58 2012.11 1170.92Z" stroke="white" stroke-width="6" mask="url(#path-1-outside-1_115_85)"/>
<path fill-rule="evenodd" clip-rule="evenodd" d="M1950.86 1207.79C1942.48 1278.94 1956.94 1365.31 1996.39 1449.92C2035.85 1534.53 2092.71 1601.12 2152.6 1640.44C2212.54 1679.78 2275.06 1691.57 2326.33 1667.66C2377.6 1643.76 2408.75 1588.29 2417.14 1517.08C2425.52 1445.93 2411.06 1359.57 2371.61 1274.96C2332.15 1190.34 2275.29 1123.75 2215.39 1084.44C2155.46 1045.1 2092.94 1033.31 2041.67 1057.21C1990.4 1081.12 1959.25 1136.59 1950.86 1207.79ZM2040.4 1054.49C1935.29 1103.51 1914.37 1281.11 1993.68 1451.19C2072.98 1621.26 2222.48 1719.4 2327.6 1670.38C2432.71 1621.37 2453.63 1443.76 2374.32 1273.69C2295.02 1103.61 2145.52 1005.48 2040.4 1054.49Z" stroke="white" stroke-width="6" mask="url(#path-1-outside-1_115_85)"/>
<path fill-rule="evenodd" clip-rule="evenodd" d="M1940.69 1111.4C1927.08 1226.99 1950.57 1367.16 2014.57 1504.42C2078.58 1641.67 2170.85 1749.77 2268.15 1813.64C2365.5 1877.54 2467.42 1896.93 2551.22 1857.85C2635.02 1818.78 2685.69 1728.23 2699.31 1612.59C2712.92 1497 2689.43 1356.83 2625.43 1219.57C2561.42 1082.32 2469.15 974.22 2371.85 910.35C2274.5 846.45 2172.58 827.059 2088.78 866.136C2004.98 905.213 1954.31 995.757 1940.69 1111.4ZM2087.51 863.417C1917.33 942.775 1883.45 1230.33 2011.85 1505.69C2140.26 1781.04 2382.31 1939.93 2552.49 1860.57C2722.67 1781.21 2756.55 1493.66 2628.14 1218.3C2499.74 942.948 2257.69 784.059 2087.51 863.417Z" stroke="white" stroke-width="6" mask="url(#path-1-outside-1_115_85)"/>
<path fill-rule="evenodd" clip-rule="evenodd" d="M1925.57 956.846C1903.5 1144.22 1941.59 1371.31 2045.25 1593.61C2148.91 1815.9 2298.38 1991.05 2456.11 2094.58C2613.88 2198.15 2779.46 2229.82 2915.82 2166.24C3052.18 2102.65 3134.35 1955.45 3156.43 1768.02C3178.5 1580.64 3140.41 1353.55 3036.75 1131.26C2933.09 908.968 2783.62 733.819 2625.89 630.283C2468.12 526.716 2302.54 495.044 2166.18 558.629C2029.82 622.213 1947.65 769.413 1925.57 956.846ZM2164.91 555.91C1889.61 684.283 1834.82 1149.44 2042.53 1594.87C2250.24 2040.3 2641.79 2297.33 2917.09 2168.96C3192.38 2040.58 3247.18 1575.42 3039.47 1129.99C2831.76 684.562 2440.21 427.536 2164.91 555.91Z" stroke="white" stroke-width="6" mask="url(#path-1-outside-1_115_85)"/>
<path fill-rule="evenodd" clip-rule="evenodd" d="M1901.29 705.897C1865.52 1009.5 1927.25 1377.32 2095.1 1737.29C2262.96 2097.26 2505.05 2380.97 2760.61 2548.73C3016.22 2716.52 3284.86 2768.07 3506.31 2664.81C3727.76 2561.55 3860.94 2322.62 3896.71 2018.96C3932.47 1715.35 3870.75 1347.54 3702.89 987.566C3535.04 627.594 3292.95 343.884 3037.39 176.126C2781.78 8.33687 2513.14 -43.2182 2291.69 60.0455C2070.24 163.309 1937.06 402.237 1901.29 705.897ZM2290.42 57.3265C1844.94 265.058 1756.28 1017.77 2092.39 1738.56C2428.49 2459.35 3062.1 2875.26 3507.58 2667.53C3953.06 2459.8 4041.72 1707.09 3705.61 986.298C3369.51 265.51 2735.9 -150.404 2290.42 57.3265Z" stroke="white" stroke-width="6" mask="url(#path-1-outside-1_115_85)"/>
</svg>
