<svg width="512" height="90" fill="none" xmlns="http://www.w3.org/2000/svg">
    <path fill-rule="evenodd" clip-rule="evenodd"
        d="M360.179 90c-23.364 0-37.615-13.57-37.615-39.367V5.205a5.149 5.149 0 015.147-5.15h2.406a5.148 5.148 0 015.147 5.15v44.917c0 19.697 8.913 28.567 24.915 28.567 16 0 24.915-8.923 24.915-28.62V5.148A5.149 5.149 0 01390.241 0h2.406a5.15 5.15 0 015.147 5.15v45.427c0 25.799-14.251 39.423-37.615 39.423zM79.183 44.527c0 19.952-14.093 33.422-36.06 33.422H24.268a5.15 5.15 0 01-5.147-5.152V16.254a5.149 5.149 0 015.147-5.15h18.853c21.968 0 36.061 13.472 36.061 33.423zM5.153.049C1.5.049-.991 3.75.383 7.137l5.664 6.23c.249.615.378 1.274.378 1.938v59.971c0 .731-.156 1.451-.455 2.115L.779 81.738c-1.534 3.409.957 7.268 4.692 7.268h38.412c28.57 0 48-18.046 48-44.48 0-26.431-19.43-44.477-48-44.477H5.153zm252.58 42.8l.08 41.022a5.15 5.15 0 005.147 5.14h1.901c2.843 0 5.15-2.31 5.145-5.159l-.113-78.654a5.147 5.147 0 00-5.147-5.142h-2.321c-1.828 0-3.519.969-4.443 2.548l-30.669 52.432c-1.979 3.388-6.865 3.4-8.866.028L187.321 2.575a5.145 5.145 0 00-4.426-2.52h-2.335a5.147 5.147 0 00-5.146 5.15V83.86a5.149 5.149 0 005.146 5.151h1.897a5.15 5.15 0 005.147-5.151V43.19c0-5.227 6.874-7.131 9.559-2.65l21.067 35.165a5.142 5.142 0 004.413 2.503h.002a5.142 5.142 0 004.421-2.515l21.099-35.47c2.671-4.492 9.557-2.602 9.568 2.626zM295.461.055h2.406a5.149 5.149 0 015.147 5.151v78.655a5.15 5.15 0 01-5.147 5.15h-2.406a5.149 5.149 0 01-5.147-5.15V5.206a5.148 5.148 0 015.147-5.15zm204.264 42.792l.082 41.024a5.148 5.148 0 005.147 5.14h1.901c2.843 0 5.15-2.31 5.145-5.159l-.113-78.654A5.148 5.148 0 00506.74.056h-2.32c-1.828 0-3.519.969-4.443 2.548l-30.668 52.432c-1.981 3.388-6.865 3.4-8.867.028L429.314 2.575a5.143 5.143 0 00-4.426-2.52h-2.335a5.147 5.147 0 00-5.147 5.15V83.86a5.15 5.15 0 005.147 5.151h1.898a5.15 5.15 0 005.145-5.151V43.188c0-5.226 6.874-7.13 9.559-2.65l21.069 35.167a5.146 5.146 0 008.836-.013l21.098-35.468c2.671-4.493 9.558-2.605 9.567 2.623zm-377.878 13.92c.491.808.753 1.734.753 2.681l.001.244v24.163a5.15 5.15 0 005.147 5.151h2.277a5.15 5.15 0 005.148-5.15V59.442c0-.947.259-1.873.752-2.681l29.777-48.88c2.091-3.431-.377-7.83-4.394-7.83h-1.524a5.14 5.14 0 00-4.399 2.476l-22.552 37.179a5.156 5.156 0 01-3.954 2.457c-1.529-.145-3.034-.962-3.94-2.452L102.388 2.533a5.144 5.144 0 00-4.4-2.477h-1.525c-4.015 0-6.484 4.4-4.395 7.83l29.779 48.882z"
        fill="#fff" />
</svg>